PathFileType	4	(X/Y/Z)	/Users/itak/Documents/Research/Walk-IL/dataset/trc/00038_00004.trc
DataRate	CameraRate	NumFrames	NumMarkers	Units	OrigDataRate	OrigDataStartFrame	OrigNumFrames
100.000000	100.000000	4	53	mm	100.000000	327	524
Frame#	Time	RPSI			LPSI			L3			STRN			T10			C7			CLAV			RBAK			LBAK			LSHO			LUPA			LAEL			LAOL			LWTS			LWPS			LFRA			LIFD			LHPS			LHTS			RSHO			RUPA			RAEL			RAOL			RWTS			RWPS			RFRA			RIFD			RHTS			RHPS			RBHD			LFHD			RFHD			LBHD			LHIP			RHIP			RASI			LASI			LKNE			LTHI			LANK			LTIP			LTOE			LMT1			LMT5			LHEE			RKNE			RTHI			RANK			RTIP			RTOE			RMT1			RMT5			RHEE			
		X1	Y1	Z1	X2	Y2	Z2	X3	Y3	Z3	X4	Y4	Z4	X5	Y5	Z5	X6	Y6	Z6	X7	Y7	Z7	X8	Y8	Z8	X9	Y9	Z9	X10	Y10	Z10	X11	Y11	Z11	X12	Y12	Z12	X13	Y13	Z13	X14	Y14	Z14	X15	Y15	Z15	X16	Y16	Z16	X17	Y17	Z17	X18	Y18	Z18	X19	Y19	Z19	X20	Y20	Z20	X21	Y21	Z21	X22	Y22	Z22	X23	Y23	Z23	X24	Y24	Z24	X25	Y25	Z25	X26	Y26	Z26	X27	Y27	Z27	X28	Y28	Z28	X29	Y29	Z29	X30	Y30	Z30	X31	Y31	Z31	X32	Y32	Z32	X33	Y33	Z33	X34	Y34	Z34	X35	Y35	Z35	X36	Y36	Z36	X37	Y37	Z37	X38	Y38	Z38	X39	Y39	Z39	X40	Y40	Z40	X41	Y41	Z41	X42	Y42	Z42	X43	Y43	Z43	X44	Y44	Z44	X45	Y45	Z45	X46	Y46	Z46	X47	Y47	Z47	X48	Y48	Z48	X49	Y49	Z49	X50	Y50	Z50	X51	Y51	Z51	X52	Y52	Z52	X53	Y53	Z53	

328	3.27	-274.7486267089844	1040.692993164062	266.7777099609375	-151.3238220214844	1038.979370117188	160.8226623535156	-214.6479797363281	1101.498901367188	200.8452301025391	-82.33699035644531	1300.40478515625	377.2801818847656	-227.1363983154297	1246.210693359375	174.9477996826172	-187.7257843017578	1514.467651367188	201.8710784912109	-103.4750900268555	1425.049072265625	336.4704284667969	-285.3550720214844	1378.580932617188	205.5464477539062	-119.807861328125	1472.649291992188	132.1813201904297	-1.10734498500824	1480.483764648438	171.5975494384766	42.58390426635742	1356.388061523438	97.12055206298828	65.56178283691406	1141.533203125	69.75120544433594	-39.86175537109375	1125.182495117188	85.25927734375	86.11558532714844	883.0833129882812	156.9406127929688	69.01425933837891	874.0675048828125	69.96379852294922	80.56116485595703	1026.076538085938	68.15764617919922	89.50724792480469	698.0822143554688	180.0448455810547	91.89595031738281	783.1307983398438	89.90607452392578	110.680793762207	789.347900390625	158.8343963623047	-289.5851745605469	1502.045532226562	362.7511901855469	-357.2039184570312	1434.37841796875	389.2711791992188	-412.7881469726562	1170.85791015625	368.4045104980469	-329.0233154296875	1139.100463867188	320.9192199707031	-323.4967651367188	912.2108764648438	471.1444091796875	-412.8404846191406	897.9780883789062	451.1864624023438	-421.453369140625	1094.626831054688	389.1908264160156	-301.0095825195312	731.3777465820312	478.6561279296875	-316.5873718261719	805.6950073242188	511.7245788574219	-391.3276672363281	799.0122680664062	490.2099914550781	-68.97032928466797	1707.902709960938	276.3684692382812	-143.0229339599609	1659.029663085938	476.0128173828125	-48.90565490722656	1665.182006835938	451.7346496582031	-206.8780059814453	1695.305908203125	317.1255493164062	4.961119174957275	948.2735595703125	176.1801452636719	-278.9925231933594	924.8218383789062	418.068359375	-161.7390747070312	970.0523071289062	453.2513122558594	17.87630462646484	997.8341674804688	305.6693420410156	84.31373596191406	534.3286743164062	345.9177551269531	73.47165679931641	658.7372436523438	269.82373046875	84.16332244873047	33.87842178344727	263.0552062988281	89.30770874023438	288.6897583007812	277.3867492675781	93.48582458496094	37.96999359130859	489.6668395996094	60.97301483154297	45.55291748046875	439.2938537597656	145.3207550048828	35.60808563232422	372.8348083496094	11.1135892868042	43.53335189819336	215.7472534179688	-220.0388336181641	483.3289184570312	431.9727478027344	-249.8286590576172	759.4758911132812	441.0270690917969	-484.0094299316406	206.4510955810547	107.0058746337891	-276.1537780761719	381.6634826660156	364.6478271484375	-343.1741027832031	37.26834869384766	147.0057678222656	-355.6972045898438	87.35011291503906	110.1779174804688	-429.9468383789062	83.62100982666016	173.7686767578125	-478.6142272949219	255.8558197021484	55.86924743652344	
329	3.28	-268.0238037109375	1041.339477539062	270.164306640625	-143.6643676757812	1040.070434570312	165.5732269287109	-207.4712371826172	1102.719604492188	204.7947845458984	-76.97764587402344	1301.667602539062	383.0140380859375	-219.1417388916016	1247.3251953125	178.7073516845703	-179.8614959716797	1515.586059570312	206.0261077880859	-97.53579711914062	1426.251708984375	341.7359313964844	-277.7075805664062	1379.802124023438	208.4443206787109	-111.1243896484375	1473.643920898438	137.2168426513672	7.046217441558838	1481.354858398438	178.1504211425781	51.73060989379883	1357.309692382812	104.2588500976562	75.61593627929688	1142.626220703125	77.04502868652344	-29.87034034729004	1126.008544921875	90.93711090087891	95.59325408935547	884.0807495117188	164.0649261474609	79.74871826171875	875.1968383789062	76.78196716308594	90.93558502197266	1027.322021484375	75.40219116210938	99.31365203857422	699.033935546875	186.6289367675781	102.6324768066406	784.3386840820312	96.79681396484375	120.5015869140625	790.4351196289062	166.02685546875	-283.9629516601562	1503.356567382812	365.5269470214844	-351.9349670410156	1435.784545898438	391.1705322265625	-407.4916687011719	1172.265991210938	370.0751037597656	-323.3241577148438	1140.4931640625	323.2710266113281	-319.1555786132812	913.572021484375	473.465576171875	-408.3052978515625	899.3554077148438	452.7919006347656	-416.2424926757812	1096.009033203125	390.7920837402344	-296.5735778808594	732.7431030273438	481.0249938964844	-312.6217346191406	806.9904174804688	513.9966430664062	-387.1101379394531	800.3409423828125	491.8468933105469	-62.35924911499023	1709.102294921875	281.4153442382812	-137.5307312011719	1660.315795898438	480.6539916992188	-43.28776931762695	1666.53369140625	456.9255981445312	-200.4693298339844	1696.387451171875	321.3758239746094	12.43125343322754	949.5167236328125	182.3101196289062	-273.5720825195312	925.8261108398438	421.9288635253906	-156.8839111328125	971.6268920898438	457.9072265625	24.04439544677734	999.03466796875	312.0127563476562	88.57684326171875	533.6388549804688	348.6037292480469	78.64286804199219	658.8150024414062	273.7050170898438	84.26187896728516	33.75856018066406	263.0152893066406	91.41365051269531	288.3511352539062	278.2783508300781	93.57173156738281	37.86309051513672	489.6669006347656	61.15765380859375	45.62610244750977	439.2481079101562	145.5250854492188	35.44863128662109	372.6955261230469	11.17290115356445	43.42984008789062	215.6238098144531	-209.5608673095703	485.1481628417969	444.4031066894531	-243.055419921875	761.1875610351562	447.6851501464844	-470.1205749511719	215.5236358642578	112.3384399414062	-264.8918762207031	384.5017700195312	376.0682983398438	-338.27294921875	37.84664916992188	157.0967254638672	-347.4470520019531	90.40346527099609	119.2968292236328	-423.4085998535156	90.46654510498047	180.1166839599609	-461.3554992675781	264.3027038574219	61.4319953918457	
330	3.29	-261.679443359375	1042.125	273.5609741210938	-136.2529144287109	1041.130859375	170.3432769775391	-200.4229888916016	1104.0107421875	208.8344879150391	-71.77117919921875	1302.94970703125	388.7115478515625	-211.3669738769531	1248.46875	182.5089416503906	-172.1795501708984	1516.741821289062	210.2598419189453	-91.76568603515625	1427.4853515625	347.0002136230469	-270.2440490722656	1381.06298828125	211.4179840087891	-102.6567535400391	1474.711059570312	142.3034362792969	14.96935558319092	1482.29296875	184.7220458984375	60.64888763427734	1358.295043945312	111.4532165527344	85.49606323242188	1143.786743164062	84.46283721923828	-20.06525039672852	1126.86572265625	96.88230895996094	105.0155487060547	885.1574096679688	171.3349456787109	90.34757232666016	876.3978881835938	83.79013061523438	101.1569137573242	1028.657592773438	82.80026245117188	109.1215133666992	700.0625	193.3694305419922	113.2867889404297	785.6192016601562	103.8673324584961	130.2757263183594	791.60546875	173.350341796875	-278.4818115234375	1504.685546875	368.3578491210938	-346.81884765625	1437.210693359375	393.10791015625	-402.2539367675781	1173.696044921875	371.7581481933594	-317.7106323242188	1141.90283203125	325.6477355957031	-314.9081420898438	914.968017578125	475.8252563476562	-403.8448791503906	900.7581787109375	454.4281311035156	-411.1293334960938	1097.395629882812	392.3832092285156	-292.1807250976562	734.158203125	483.4954223632812	-308.84912109375	808.301025390625	516.2992553710938	-382.9151000976562	801.68798828125	493.5732116699219	-55.87561416625977	1710.286865234375	286.4987487792969	-132.1490020751953	1661.628295898438	485.3506774902344	-37.77595138549805	1667.884521484375	462.1597595214844	-194.1695556640625	1697.500366210938	325.6846008300781	19.56722068786621	950.6517944335938	188.3385314941406	-268.3202819824219	926.9967651367188	425.9215698242188	-152.1260528564453	973.2769775390625	462.5568542480469	30.02532386779785	1000.234008789062	318.2247619628906	92.51001739501953	532.9281005859375	351.17333984375	83.53025054931641	658.865234375	277.5174865722656	84.33552551269531	33.67147827148438	262.992919921875	93.35361480712891	288.0278930664062	279.1300964355469	93.6307373046875	37.80690765380859	489.6747436523438	61.30005645751953	45.69282531738281	439.2177429199219	145.6683044433594	35.31202697753906	372.5845947265625	11.17050838470459	43.31988525390625	215.5503845214844	-199.4113159179688	487.3160400390625	456.6373596191406	-236.5865478515625	763.07958984375	454.2887878417969	-455.4946594238281	223.4924774169922	117.8618621826172	-253.9172668457031	387.60595703125	387.3418273925781	-332.7130737304688	39.13738250732422	169.3744201660156	-338.2527160644531	93.22367858886719	130.1692047119141	-416.0000915527344	97.39379119873047	187.7802276611328	-443.35693359375	271.1073608398438	66.92227172851562	
331	3.3	-255.7010345458984	1043.033081054688	276.9670104980469	-129.0916595458984	1042.152099609375	175.1231231689453	-193.4941558837891	1105.353149414062	212.964111328125	-66.70462036132812	1304.237915039062	394.3458862304688	-203.8283538818359	1249.634399414062	186.3521728515625	-164.6976470947266	1517.925537109375	214.5634613037109	-86.15207672119141	1428.7412109375	352.2560729980469	-262.9665222167969	1382.352294921875	214.4785003662109	-94.41473388671875	1475.839111328125	147.4303283691406	22.65290832519531	1483.306396484375	191.2948913574219	69.34285736083984	1359.354736328125	118.6789855957031	95.18238067626953	1145.0185546875	91.99024963378906	-10.45851230621338	1127.7646484375	103.0715255737305	114.3642120361328	886.3165893554688	178.7507781982422	100.7780380249023	877.6742553710938	90.98857116699219	111.2051467895508	1030.07080078125	90.34865570068359	118.8762893676758	701.1695556640625	200.2855834960938	123.8177642822266	786.9693603515625	111.1232452392578	139.9747314453125	792.8609008789062	180.8108520507812	-273.1253051757812	1506.032470703125	371.2479858398438	-341.8379821777344	1438.654052734375	395.1018981933594	-397.0769958496094	1175.145263671875	373.4302062988281	-312.1485595703125	1143.329467773438	328.0602416992188	-310.7719421386719	916.3968505859375	478.2322692871094	-399.4768981933594	902.1825561523438	456.0617370605469	-406.1069030761719	1098.79052734375	393.9454345703125	-287.8558654785156	735.630615234375	486.1079406738281	-305.2496643066406	809.6423950195312	518.6652221679688	-378.7577819824219	803.05126953125	495.3778381347656	-49.51938247680664	1711.457275390625	291.6246337890625	-126.8836059570312	1662.949829101562	490.1017456054688	-32.37610626220703	1669.21728515625	467.4384155273438	-187.9818267822266	1698.645874023438	330.0544738769531	26.36977195739746	951.6790771484375	194.2635955810547	-263.2361755371094	928.3247680664062	430.0322875976562	-147.4599304199219	974.9811401367188	467.2052612304688	35.83639526367188	1001.406494140625	324.323974609375	96.14857482910156	532.2025756835938	353.6054077148438	88.14537048339844	658.8861083984375	281.2369995117188	84.38986206054688	33.60971450805664	262.9844665527344	95.13299560546875	287.7249145507812	279.9317016601562	93.68343353271484	37.77744674682617	489.689697265625	61.42015075683594	45.74979019165039	439.1992492675781	145.7607421875	35.17401504516602	372.505126953125	11.1431303024292	43.23284149169922	215.5308532714844	-189.6240539550781	489.8059997558594	468.6553039550781	-230.4422454833984	765.1339721679688	460.8230285644531	-440.2569274902344	230.1388397216797	123.6589660644531	-243.2548980712891	390.9302673339844	398.4655456542969	-326.2678833007812	41.07221984863281	183.6413879394531	-328.0710754394531	95.73780822753906	142.7182769775391	-407.6116943359375	104.1355972290039	196.7982177734375	-424.8134460449219	276.1267395019531	72.45166015625	
